<?xml version="1.0" standalone="no"?>
<!DOCTYPE svg PUBLIC "-//W3C//DTD SVG 20010904//EN"
 "http://www.w3.org/TR/2001/REC-SVG-20010904/DTD/svg10.dtd">
<svg version="1.0" xmlns="http://www.w3.org/2000/svg"
 width="1024.000000pt" height="1024.000000pt" viewBox="0 0 1024.000000 1024.000000"
 preserveAspectRatio="xMidYMid meet">
<metadata>
Created by potrace 1.16, written by Peter Selinger 2001-2019
</metadata>
<g transform="translate(0.000000,1024.000000) scale(0.100000,-0.100000)"
fill="#000000" stroke="none">
<path d="M4290 9563 c-101 -37 -175 -96 -212 -168 -46 -89 -47 -105 -48 -926
l0 -776 -24 -44 c-13 -24 -34 -64 -48 -89 -41 -74 -89 -161 -123 -225 -79
-148 -109 -202 -127 -227 -10 -14 -18 -29 -18 -33 0 -3 -17 -37 -39 -73 -21
-37 -55 -98 -75 -135 -20 -37 -46 -84 -58 -105 -11 -20 -34 -62 -51 -92 -16
-30 -41 -75 -55 -100 -14 -25 -41 -75 -59 -111 l-35 -67 -38 42 c-21 22 -64
55 -96 71 l-57 30 -1106 0 -1106 0 -55 -28 c-61 -32 -132 -100 -153 -150 -38
-86 -40 -96 -33 -240 3 -78 10 -196 15 -262 5 -66 17 -226 25 -355 9 -129 21
-293 26 -365 6 -71 15 -193 20 -270 6 -77 15 -198 20 -270 6 -71 17 -231 25
-355 8 -124 20 -288 25 -365 26 -348 31 -413 45 -625 8 -124 20 -283 25 -355
6 -71 15 -193 20 -270 6 -77 15 -198 20 -270 6 -71 17 -231 25 -355 37 -567
41 -597 66 -658 26 -60 103 -139 168 -170 l56 -27 940 0 940 0 50 29 c100 57
159 132 178 228 l13 63 271 3 271 2 23 -32 c80 -115 212 -216 344 -264 l80
-29 1760 0 1760 0 65 24 c98 36 140 55 140 63 0 5 6 8 13 8 24 0 142 106 195
175 43 55 100 189 116 271 20 101 20 157 1 259 -16 83 -19 93 -53 162 -11 23
-18 44 -14 47 3 3 20 6 38 6 44 0 196 51 269 91 85 45 120 72 203 156 105 107
162 202 208 348 25 81 28 104 29 235 0 141 -4 170 -41 290 -17 52 -56 133 -66
138 -5 2 -8 10 -8 18 0 8 -4 14 -9 14 -5 0 -13 9 -16 20 -4 11 -17 32 -31 47
-13 14 -21 29 -18 34 3 5 26 19 52 30 74 34 186 116 246 180 106 114 167 225
214 389 21 76 21 315 -1 390 -55 190 -110 286 -233 407 l-74 72 78 78 c78 78
133 153 166 228 9 22 21 49 26 60 59 134 75 359 35 510 -25 97 -86 230 -124
274 -12 13 -21 28 -21 32 0 9 -131 143 -166 170 -53 41 -158 95 -249 128
l-100 36 -1594 3 -1593 2 6 23 c4 12 13 56 21 97 8 41 19 95 25 120 9 42 20
96 41 200 9 48 32 191 52 325 6 44 12 159 12 255 0 166 -5 219 -39 405 -14 75
-21 101 -46 190 -15 52 -27 95 -40 140 -12 43 -27 88 -40 120 -5 11 -21 54
-36 95 -52 143 -186 421 -269 559 -136 225 -300 406 -421 466 l-70 35 -230 -1
c-126 0 -236 -3 -244 -6z m-1600 -5723 l0 -2010 -510 0 -510 0 -4 22 c-3 13
-7 68 -10 123 -6 98 -16 236 -36 500 -6 72 -17 231 -25 355 -8 124 -19 284
-25 355 -5 72 -14 193 -20 270 -5 77 -17 241 -25 365 -8 124 -19 284 -25 355
-47 635 -48 648 -59 830 -6 94 -15 230 -21 303 -9 125 -23 309 -35 470 l-5 72
655 0 655 0 0 -2010z"/>
</g>
</svg>
