<?xml version="1.0" standalone="no"?>
<!DOCTYPE svg PUBLIC "-//W3C//DTD SVG 20010904//EN"
 "http://www.w3.org/TR/2001/REC-SVG-20010904/DTD/svg10.dtd">
<svg version="1.0" xmlns="http://www.w3.org/2000/svg"
 width="900.000000pt" height="900.000000pt" viewBox="0 0 900.000000 900.000000"
 preserveAspectRatio="xMidYMid meet">

<g transform="translate(0.000000,900.000000) scale(0.100000,-0.100000)"
fill="#000000" stroke="none">
<path d="M4285 8990 c-44 -5 -145 -14 -225 -20 -79 -6 -167 -15 -195 -20 -581
-101 -931 -212 -1375 -434 -1088 -544 -1918 -1521 -2282 -2686 -336 -1076
-249 -2258 241 -3275 229 -475 495 -849 876 -1231 412 -414 858 -720 1385
-951 409 -179 918 -311 1365 -355 167 -16 694 -16 850 0 749 76 1441 321 2055
727 944 623 1624 1589 1891 2683 92 377 124 654 124 1072 -1 326 -11 456 -56
730 -112 675 -365 1292 -763 1860 -187 267 -537 648 -781 849 -667 552 -1426
890 -2265 1011 -260 37 -683 57 -845 40z m635 -795 c619 -74 1159 -274 1665
-616 822 -556 1395 -1424 1574 -2384 120 -642 76 -1282 -131 -1890 -177 -523
-461 -988 -848 -1388 -757 -783 -1777 -1188 -2860 -1136 -1037 49 -2001 531
-2672 1335 -403 481 -672 1041 -792 1649 -55 277 -70 434 -70 735 0 341 30
592 105 895 165 656 501 1247 984 1730 648 648 1474 1022 2405 1089 115 8 511
-4 640 -19z"/>
<path d="M2961 6454 c-50 -21 -386 -358 -413 -413 -20 -41 -20 -47 -7 -83 11
-30 175 -200 724 -748 l710 -710 -717 -718 c-780 -781 -749 -745 -714 -824 7
-18 103 -122 213 -230 l199 -198 54 0 55 0 715 715 c393 393 719 715 724 715
4 0 241 -233 526 -517 983 -982 910 -913 959 -913 23 0 54 6 69 14 32 18 385
372 401 403 17 34 13 92 -9 127 -11 17 -332 344 -715 726 -382 382 -695 697
-695 700 0 3 322 327 715 720 l715 715 0 55 0 54 -197 199 c-109 110 -213 206
-231 213 -79 34 -43 66 -822 -712 l-716 -714 -699 700 c-668 667 -747 741
-796 740 -8 -1 -29 -7 -48 -16z"/>
</g>
</svg>
