<?xml version="1.0" standalone="no"?>
<!DOCTYPE svg PUBLIC "-//W3C//DTD SVG 20010904//EN"
 "http://www.w3.org/TR/2001/REC-SVG-20010904/DTD/svg10.dtd">
<svg version="1.0" xmlns="http://www.w3.org/2000/svg"
 width="800.000000pt" height="736.000000pt" viewBox="0 0 800.000000 736.000000"
 preserveAspectRatio="xMidYMid meet">

<g transform="translate(0.000000,736.000000) scale(0.100000,-0.100000)"
fill="#000000" stroke="none">
<path d="M7800 7094 c0 -3 5 -15 12 -27 10 -21 10 -21 -7 -7 -14 11 -19 12
-22 2 -3 -6 -9 -10 -14 -6 -5 3 -9 0 -9 -7 0 -7 -10 -9 -25 -6 -14 2 -23 2
-20 -1 7 -8 -15 -32 -31 -32 -7 0 -51 -18 -98 -40 -47 -22 -90 -40 -95 -40 -6
0 -11 -3 -11 -6 0 -9 38 -62 84 -117 44 -52 44 -50 -19 -84 -112 -59 -359
-234 -555 -392 -361 -291 -841 -778 -1180 -1196 -41 -49 -76 -92 -79 -95 -10
-8 -311 -397 -376 -485 -198 -270 -400 -565 -388 -565 4 0 0 -5 -10 -11 -9 -5
-27 -29 -38 -52 -12 -23 -25 -44 -29 -47 -7 -5 -60 -83 -75 -110 -4 -8 4 -4
18 9 15 14 27 30 27 36 0 6 14 24 30 40 17 16 30 35 30 42 0 8 7 25 16 38 13
20 25 25 60 25 37 0 44 -3 44 -20 0 -16 7 -20 34 -20 31 0 35 4 41 33 11 48
21 56 60 47 19 -4 37 -5 40 -2 3 4 4 0 0 -8 -3 -9 -18 -15 -38 -15 -29 0 -32
-3 -35 -33 -2 -18 -7 -30 -11 -27 -5 2 -7 -13 -5 -34 3 -34 0 -40 -21 -45 -14
-4 -25 -11 -25 -16 0 -12 14 -13 24 -3 4 5 11 8 16 8 5 0 36 43 71 95 94 146
153 234 159 240 3 3 36 52 75 109 127 190 494 690 507 691 12 0 87 -151 139
-280 206 -510 243 -1108 103 -1649 -28 -107 -26 -135 2 -37 11 38 22 60 26 53
4 -7 5 4 2 24 -4 20 -1 45 5 55 9 17 10 18 11 2 0 -19 15 -24 24 -10 3 5 1 22
-4 38 -5 19 -9 22 -9 10 -1 -11 -4 -17 -7 -14 -11 11 8 75 22 75 17 0 18 -14
2 -20 -10 -4 -10 -6 0 -6 7 -1 12 -14 12 -31 0 -40 18 -38 23 3 3 17 4 7 2
-23 -2 -30 -8 -77 -14 -104 -6 -27 -9 -51 -7 -53 4 -4 21 64 37 147 10 54 48
281 48 294 1 5 3 7 6 5 2 -3 -5 -72 -15 -154 -84 -649 -424 -1266 -940 -1709
-64 -55 -266 -206 -276 -206 -4 0 -15 -7 -24 -15 -9 -8 -41 -28 -71 -45 -50
-27 -52 -29 -22 -27 17 1 29 5 26 10 -2 4 4 10 14 14 10 4 32 16 48 28 17 12
37 25 45 28 8 4 25 14 38 23 13 10 22 12 22 5 0 -6 -4 -11 -10 -11 -5 0 -10
-4 -10 -9 0 -13 23 -8 53 12 31 20 61 23 35 3 -24 -18 -23 -29 2 -16 14 7 20
7 20 0 0 -5 16 -10 35 -10 19 0 35 5 35 10 0 6 103 10 289 10 160 0 292 4 295
9 3 5 17 11 31 13 13 3 22 1 19 -3 -3 -5 0 -9 6 -9 6 0 9 -4 6 -9 -7 -11 23
-25 44 -22 12 2 -33 -56 -61 -79 -4 -3 -46 -41 -94 -85 -519 -475 -1167 -772
-1880 -862 -163 -21 -600 -23 -760 -5 -493 58 -951 209 -1357 449 -235 139
-559 387 -541 416 3 6 1 7 -6 3 -15 -10 -163 133 -157 151 3 6 0 10 -7 7 -7
-2 -30 17 -52 42 -22 25 -58 67 -80 93 l-40 46 41 -35 c23 -19 44 -43 47 -54
3 -10 10 -15 15 -12 5 3 14 -6 20 -19 7 -14 17 -25 24 -25 9 0 9 3 0 12 -16
16 -15 25 2 31 10 4 13 1 9 -9 -3 -7 0 -14 6 -14 7 0 14 7 17 15 6 14 34 22
34 9 0 -4 -13 -20 -30 -35 -16 -16 -25 -31 -20 -34 6 -4 10 -1 10 5 0 7 5 6
14 -2 8 -7 12 -16 10 -19 -1 -3 6 -5 18 -5 27 1 49 -31 29 -43 -8 -5 -9 -11
-3 -15 5 -3 13 1 16 10 9 23 8 31 -8 47 -9 8 -12 24 -9 36 5 21 23 30 23 11 0
-6 100 -10 280 -10 180 0 280 -4 280 -10 0 -5 18 -10 39 -10 33 0 40 4 43 22
2 18 10 22 35 23 18 0 33 -3 33 -8 0 -5 6 -4 14 2 12 10 20 9 41 -5 14 -9 23
-19 20 -22 -3 -3 -13 2 -23 11 -23 21 -28 21 -35 3 -4 -11 -1 -13 10 -9 10 4
14 2 10 -4 -4 -6 5 -10 21 -9 26 1 71 -20 172 -78 83 -48 162 -87 166 -83 2 2
-24 18 -59 35 -74 39 -71 37 -220 134 -74 48 -125 75 -135 72 -13 -5 -14 -4
-4 4 11 7 6 15 -20 33 -18 13 -66 52 -107 87 -58 50 -76 61 -83 51 -8 -11 -9
-11 -5 2 3 10 -34 55 -107 130 -381 391 -632 868 -735 1394 -10 55 -22 129
-25 165 -4 36 -9 83 -13 105 -3 22 -2 37 1 34 5 -5 35 -195 36 -227 0 -2 4 0
10 3 6 4 7 -6 4 -25 -4 -16 -1 -52 7 -78 12 -42 14 -44 19 -22 4 14 12 24 18
23 6 -2 9 4 6 12 -8 19 4 65 16 65 5 0 7 -17 5 -37 -4 -34 -4 -35 4 -8 7 28 8
27 15 -22 4 -29 12 -55 17 -59 5 -3 9 -13 9 -23 0 -24 32 -123 37 -117 3 2 -2
28 -11 58 -37 131 -73 333 -86 483 -78 945 345 1851 1118 2392 489 342 1051
502 1663 472 587 -28 1163 -264 1605 -656 39 -35 75 -63 81 -63 5 0 25 16 44
36 l34 36 -60 55 c-131 121 -342 272 -512 367 -432 240 -933 361 -1428 343
-501 -19 -943 -153 -1368 -415 -377 -232 -713 -582 -939 -977 -43 -76 -148
-289 -148 -301 0 -3 -7 -20 -15 -37 -68 -149 -146 -450 -177 -687 -14 -108
-17 -411 -5 -513 6 -50 5 -67 -3 -62 -13 8 -39 -4 -200 -94 -156 -87 -366
-222 -382 -245 -11 -16 -15 -6 -27 64 -42 249 -55 704 -26 935 32 260 78 459
159 697 25 72 44 133 43 135 -4 3 -75 -191 -100 -272 -9 -27 -16 -42 -16 -33
-1 9 4 28 10 42 9 19 9 32 -1 56 -7 17 -14 29 -16 27 -10 -9 -79 -272 -104
-397 -49 -244 -63 -380 -64 -655 -1 -348 28 -592 109 -901 169 -646 534 -1248
1022 -1686 631 -565 1393 -875 2223 -904 1193 -40 2328 541 3000 1536 540 800
722 1821 489 2755 -37 149 -103 345 -111 332 -11 -18 -10 -29 4 -21 8 5 9 0 6
-14 -4 -12 -3 -22 2 -22 4 0 13 -21 20 -47 7 -27 21 -73 30 -103 10 -30 20
-71 24 -90 4 -25 0 -21 -12 17 -10 29 -22 56 -26 60 -5 4 -7 1 -3 -9 3 -9 8
-34 11 -55 5 -35 5 -34 -8 9 -7 25 -12 59 -10 75 4 24 3 25 -6 8 -9 -17 -10
-16 -5 8 4 20 1 27 -10 27 -9 0 -15 10 -16 28 -1 15 -3 20 -6 10 -2 -9 9 -63
26 -120 27 -94 63 -269 91 -438 18 -106 25 -584 11 -734 -7 -72 -15 -142 -17
-156 -2 -14 -7 -51 -11 -82 -3 -32 -10 -58 -15 -58 -6 0 -44 24 -86 53 -43 30
-117 78 -167 107 -49 30 -92 56 -95 59 -16 19 -241 122 -251 115 -9 -5 -10 -2
-5 12 15 38 19 328 7 449 -20 196 -71 467 -101 540 -4 11 -25 70 -46 130 -20
61 -55 150 -76 198 -21 48 -38 92 -38 96 0 8 210 184 310 261 25 19 51 40 58
47 7 7 33 27 57 44 25 18 45 36 45 41 0 5 5 6 10 3 6 -3 10 -2 10 4 0 13 -109
201 -132 227 -22 25 -23 44 -2 44 9 0 12 5 8 12 -4 6 -3 8 4 4 5 -3 12 -1 14
5 6 18 33 -1 51 -37 14 -28 15 -39 6 -50 -10 -12 -16 -9 -35 17 -13 18 -21 37
-17 42 3 6 1 7 -5 3 -17 -10 -15 -19 7 -42 10 -11 26 -34 35 -50 10 -16 15
-21 12 -11 -8 25 4 43 16 26 8 -11 9 -10 4 4 -3 9 -1 17 4 17 6 0 10 -6 10
-13 0 -8 16 -36 35 -63 19 -27 35 -55 35 -61 0 -7 5 -13 10 -13 11 0 -8 37
-63 127 -18 29 -45 73 -61 99 l-28 46 63 67 c137 144 469 470 549 541 47 41
87 77 90 80 36 36 331 273 387 310 11 8 63 45 115 81 51 36 134 90 183 119 50
30 92 55 94 57 4 3 -168 203 -175 203 -2 0 -4 -3 -4 -6z m-7470 -2368 c0 -8
-4 -18 -10 -21 -5 -3 -10 -22 -10 -41 0 -24 -4 -33 -12 -28 -8 5 -9 -5 -5 -37
3 -24 3 -35 0 -24 l-6 20 -8 -20 c-13 -30 0 41 17 93 8 23 14 49 14 57 0 8 5
15 10 15 6 0 10 -6 10 -14z m6617 -218 c-3 -8 -6 -5 -6 6 -1 11 2 17 5 13 3
-3 4 -12 1 -19z m-6689 -12 c-1 -14 -5 -23 -9 -20 -7 4 0 44 7 44 2 0 3 -11 2
-24z m6719 -8 c-3 -7 -5 -2 -5 12 0 14 2 19 5 13 2 -7 2 -19 0 -25z m-6700
-10 c-3 -8 -6 -5 -6 6 -1 11 2 17 5 13 3 -3 4 -12 1 -19z m-21 -83 c-9 -9 -16
-13 -16 -8 0 12 22 34 28 28 2 -2 -3 -11 -12 -20z m6751 -47 c-3 -8 -6 -5 -6
6 -1 11 2 17 5 13 3 -3 4 -12 1 -19z m-1807 -47 c0 -6 -12 -23 -26 -38 -25
-28 -23 -19 6 25 16 24 20 27 20 13z m177 -33 c-3 -8 -6 -5 -6 6 -1 11 2 17 5
13 3 -3 4 -12 1 -19z m-5170 -50 c-3 -8 -6 -5 -6 6 -1 11 2 17 5 13 3 -3 4
-12 1 -19z m5166 7 c-3 -9 -8 -14 -10 -11 -3 3 -2 9 2 15 9 16 15 13 8 -4z
m-262 -58 c-10 -9 -11 -8 -5 6 3 10 9 15 12 12 3 -3 0 -11 -7 -18z m89 3 c0
-13 -11 -13 -30 0 -12 8 -11 10 8 10 12 0 22 -4 22 -10z m-100 -24 c0 -3 -4
-8 -10 -11 -5 -3 -10 -1 -10 4 0 6 5 11 10 11 6 0 10 -2 10 -4z m220 -2 c0 -3
-9 -17 -20 -31 -23 -29 -25 -25 -8 12 10 22 28 35 28 19z m-207 -48 c4 -11 1
-13 -10 -9 -10 4 -14 2 -10 -5 8 -12 -12 -62 -25 -62 -4 0 -8 -4 -8 -10 0 -5
8 -10 17 -10 9 0 14 -3 10 -6 -11 -11 -44 6 -56 29 -11 22 -11 22 -6 -3 3 -14
2 -19 -1 -12 -5 10 -9 10 -20 1 -20 -17 -17 -1 6 28 11 14 20 21 20 14 0 -6 5
-11 10 -11 6 0 10 7 10 15 0 8 5 15 12 15 6 0 8 3 5 7 -6 6 21 32 34 33 4 0 9
-7 12 -14z m77 -20 c0 -1 -5 -17 -11 -35 -12 -35 -35 -43 -25 -8 3 12 6 28 6
35 0 6 7 12 15 12 8 0 15 -2 15 -4z m40 -18 c-11 -12 -20 -26 -20 -32 0 -5 -2
-7 -5 -4 -10 10 15 58 30 58 13 0 12 -4 -5 -22z m14 -23 c-9 -14 -18 -25 -20
-25 -2 0 2 11 8 25 6 14 15 25 20 25 5 0 1 -11 -8 -25z m-84 -134 c-11 -21
-30 -37 -30 -25 0 8 30 44 37 44 2 0 -1 -9 -7 -19z m1200 -441 c0 -5 -4 -10
-10 -10 -5 0 -10 5 -10 10 0 6 5 10 10 10 6 0 10 -4 10 -10z m-5451 -114 c-9
-8 -10 -7 -5 7 3 10 7 35 8 55 1 35 2 35 5 -7 3 -26 -1 -48 -8 -55z m71 -6 c0
-16 -4 -30 -8 -30 -5 0 -7 14 -4 30 2 17 6 30 8 30 2 0 4 -13 4 -30z m-59 -63
c-10 -9 -11 -8 -5 6 3 10 9 15 12 12 3 -3 0 -11 -7 -18z m26 -9 c-3 -7 -5 -2
-5 12 0 14 2 19 5 13 2 -7 2 -19 0 -25z m52 -42 c2 -30 -17 -6 -19 24 -4 43 2
56 10 25 4 -16 8 -39 9 -49z m-33 -41 c-8 -12 -16 -32 -18 -46 -4 -21 -5 -20
-12 11 -5 25 -2 47 10 75 l17 40 8 -30 c6 -20 4 -36 -5 -50z m5304 -1585 c0
-5 -5 -10 -11 -10 -5 0 -7 5 -4 10 3 6 8 10 11 10 2 0 4 -4 4 -10z m-5256 -49
c-2 -3 -12 3 -22 13 -16 17 -16 18 5 5 12 -7 20 -15 17 -18z m833 -7 c-3 -3
-12 -4 -19 -1 -8 3 -5 6 6 6 11 1 17 -2 13 -5z m43 -55 c0 -5 -4 -9 -10 -9 -5
0 -10 7 -10 16 0 8 5 12 10 9 6 -3 10 -10 10 -16z m3435 -9 c-10 -11 -23 -20
-29 -20 -6 0 0 9 14 20 32 25 38 25 15 0z m820 0 c17 14 20 6 5 -13 -6 -7 -24
-29 -40 -51 -17 -21 -30 -32 -30 -24 0 8 9 23 20 33 25 22 25 33 3 59 -18 21
-18 21 4 2 19 -15 25 -16 38 -6z m-4195 -20 c0 -5 -7 -10 -16 -10 -8 0 -12 5
-9 10 3 6 10 10 16 10 5 0 9 -4 9 -10z m3340 -20 c0 -4 -18 -17 -40 -28 -22
-11 -40 -18 -40 -16 0 11 42 44 50 39 5 -3 12 0 16 6 5 8 3 9 -6 4 -9 -5 -11
-4 -6 4 8 12 26 6 26 -9z m792 -12 c-8 -8 -9 -4 -5 13 4 13 8 18 11 10 2 -7
-1 -18 -6 -23z m-27 3 c-3 -5 -1 -12 5 -16 5 -3 10 -14 9 -23 0 -12 -3 -11 -9
6 -5 12 -14 22 -20 22 -6 0 -8 5 -5 10 3 6 11 10 16 10 6 0 8 -4 4 -9z"/>
<path d="M957 3213 c-4 -3 -7 -11 -7 -17 0 -6 5 -5 12 2 6 6 9 14 7 17 -3 3
-9 2 -12 -2z"/>
<path d="M6510 5551 c0 -6 4 -13 10 -16 6 -3 7 1 4 9 -7 18 -14 21 -14 7z"/>
<path d="M6547 5453 c-2 -5 13 -34 33 -66 28 -44 39 -54 44 -42 3 9 2 14 -2
11 -4 -2 -22 18 -39 46 -21 32 -27 48 -17 44 8 -3 12 -2 9 4 -7 12 -22 13 -28
3z"/>
<path d="M6810 5043 c0 -18 20 -66 25 -61 3 3 -1 20 -9 39 -9 19 -15 29 -16
22z"/>
<path d="M361 4909 c-14 -42 -7 -49 9 -9 7 17 10 33 8 36 -3 3 -11 -9 -17 -27z"/>
<path d="M6850 4933 c0 -4 5 -15 10 -23 8 -13 10 -13 10 2 0 9 -4 20 -10 23
-5 3 -10 3 -10 -2z"/>
<path d="M6815 4890 c2 -8 12 -41 21 -73 11 -38 20 -53 26 -45 11 18 10 30 -2
23 -5 -3 -10 2 -10 12 0 10 -9 36 -20 58 -11 22 -18 33 -15 25z"/>
<path d="M330 4830 c-7 -17 -10 -33 -8 -36 3 -2 11 9 18 26 7 17 10 33 8 36
-3 2 -11 -9 -18 -26z"/>
<path d="M6881 4774 c0 -11 3 -14 6 -6 3 7 2 16 -1 19 -3 4 -6 -2 -5 -13z"/>
<path d="M2687 4659 c7 -7 15 -10 18 -7 3 3 -2 9 -12 12 -14 6 -15 5 -6 -5z"/>
<path d="M2727 4639 c14 -14 5 -49 -11 -43 -6 2 -29 -5 -51 -16 -21 -11 -45
-20 -52 -20 -7 0 -13 -4 -13 -9 0 -5 -22 -17 -49 -26 -27 -9 -59 -24 -71 -35
-12 -10 -29 -16 -37 -13 -12 5 -14 3 -8 -7 6 -10 4 -12 -8 -7 -10 4 -25 10
-34 14 -9 3 10 -18 43 -48 82 -75 249 -257 335 -364 143 -180 416 -591 528
-797 24 -43 45 -78 47 -78 2 0 10 12 18 28 8 15 66 102 128 193 l115 167 -36
56 c-335 529 -588 843 -793 984 -46 31 -73 43 -51 21z"/>
<path d="M4945 3928 c-9 -27 -13 -90 -5 -82 10 11 24 94 16 94 -4 0 -8 -6 -11
-12z"/>
<path d="M5052 3823 c-14 -26 -16 -44 -2 -23 9 13 11 13 20 0 11 -18 12 -4 1
25 -8 19 -8 19 -19 -2z"/>
<path d="M5094 3793 c-10 -15 -20 -30 -22 -33 -1 -2 -7 2 -12 10 -8 12 -10 11
-11 -5 -1 -11 -3 -24 -3 -30 -3 -22 -70 -128 -74 -117 -2 7 2 19 8 27 8 10 9
15 2 15 -14 0 -24 -33 -16 -54 3 -9 1 -16 -6 -16 -6 0 -8 -5 -4 -11 3 -6 1
-15 -6 -19 -7 -4 -29 -37 -49 -73 -20 -36 -51 -91 -70 -122 -18 -31 -31 -58
-29 -60 4 -4 95 140 130 205 8 14 30 51 51 82 20 31 37 61 37 67 0 5 4 11 8
13 12 5 94 139 89 145 -3 3 -13 -8 -23 -24z"/>
<path d="M4740 3653 c-30 -47 -61 -97 -68 -110 -21 -37 -6 -26 19 15 13 20 27
42 32 47 32 39 85 135 75 135 -2 0 -28 -39 -58 -87z"/>
<path d="M4760 3628 c-12 -22 -12 -22 6 -6 10 10 15 20 12 24 -4 3 -12 -5 -18
-18z"/>
<path d="M4621 3463 c-10 -26 -10 -27 4 -9 8 11 15 23 15 28 0 15 -7 8 -19
-19z"/>
<path d="M4590 3409 c-7 -11 -10 -23 -7 -25 2 -2 9 7 15 21 14 30 7 33 -8 4z"/>
<path d="M4815 3390 c-3 -5 -1 -10 4 -10 6 0 11 5 11 10 0 6 -2 10 -4 10 -3 0
-8 -4 -11 -10z"/>
<path d="M6695 3340 c3 -5 11 -10 16 -10 6 0 7 5 4 10 -3 6 -11 10 -16 10 -6
0 -7 -4 -4 -10z"/>
<path d="M6767 3299 c7 -7 15 -10 18 -7 3 3 -2 9 -12 12 -14 6 -15 5 -6 -5z"/>
<path d="M4742 3218 c-18 -35 -48 -91 -67 -125 -47 -84 -38 -80 12 5 80 136
104 182 96 182 -5 0 -23 -28 -41 -62z"/>
<path d="M6830 3260 c0 -6 7 -10 15 -10 8 0 15 2 15 4 0 2 -7 6 -15 10 -8 3
-15 1 -15 -4z"/>
<path d="M301 3235 c0 -12 -7 -27 -13 -34 -11 -10 -10 -11 5 -6 11 5 17 2 17
-8 0 -9 -8 -18 -17 -20 -14 -4 -12 -5 5 -6 24 -1 26 10 12 64 -5 21 -8 24 -9
10z"/>
<path d="M4466 3213 c-6 -14 -5 -15 5 -6 7 7 10 15 7 18 -3 3 -9 -2 -12 -12z"/>
<path d="M6211 3084 c0 -11 3 -14 6 -6 3 7 2 16 -1 19 -3 4 -6 -2 -5 -13z"/>
<path d="M6241 3074 c0 -11 3 -14 6 -6 3 7 2 16 -1 19 -3 4 -6 -2 -5 -13z"/>
<path d="M6221 3034 c0 -11 3 -14 6 -6 3 7 2 16 -1 19 -3 4 -6 -2 -5 -13z"/>
<path d="M4626 3012 c-19 -31 -78 -146 -72 -140 14 12 86 141 82 145 -2 2 -7
0 -10 -5z"/>
<path d="M6251 2964 c0 -11 3 -14 6 -6 3 7 2 16 -1 19 -3 4 -6 -2 -5 -13z"/>
<path d="M1080 2900 c0 -11 4 -20 9 -20 5 0 7 9 4 20 -3 11 -7 20 -9 20 -2 0
-4 -9 -4 -20z"/>
<path d="M1100 2841 c0 -6 4 -13 10 -16 6 -3 7 1 4 9 -7 18 -14 21 -14 7z"/>
<path d="M4526 2833 c-6 -14 -5 -15 5 -6 7 7 10 15 7 18 -3 3 -9 -2 -12 -12z"/>
<path d="M6116 2835 c-9 -26 -7 -32 5 -12 6 10 9 21 6 23 -2 3 -7 -2 -11 -11z"/>
<path d="M4496 2781 c-23 -43 -20 -52 5 -12 11 18 18 35 15 38 -2 3 -12 -9
-20 -26z"/>
<path d="M4205 2759 c-4 -6 -5 -12 -2 -15 2 -3 7 2 10 11 7 17 1 20 -8 4z"/>
<path d="M4442 2685 c-6 -14 -8 -25 -3 -25 8 0 23 41 17 47 -1 2 -8 -8 -14
-22z"/>
<path d="M4416 2633 c-6 -14 -5 -15 5 -6 7 7 10 15 7 18 -3 3 -9 -2 -12 -12z"/>
<path d="M4357 2528 c-10 -17 -16 -33 -13 -35 2 -3 12 9 21 27 9 18 15 33 13
35 -2 2 -11 -10 -21 -27z"/>
<path d="M4311 2437 c-13 -21 -12 -21 5 -5 10 10 16 20 13 22 -3 3 -11 -5 -18
-17z"/>
<path d="M4275 2370 c-9 -16 -13 -30 -11 -30 3 0 12 14 21 30 9 17 13 30 11
30 -3 0 -12 -13 -21 -30z"/>
<path d="M4242 2310 c-7 -11 -8 -20 -3 -20 9 0 24 30 18 36 -1 2 -8 -6 -15
-16z"/>
<path d="M4175 2263 c-16 -9 -94 -42 -173 -74 -118 -49 -170 -77 -300 -166
-388 -264 -612 -431 -776 -580 -64 -57 -65 -61 -14 -38 18 8 101 42 183 76
132 54 158 69 212 119 121 114 481 381 791 588 67 46 122 85 122 87 0 9 -14 5
-45 -12z"/>
<path d="M2128 1303 c7 -3 16 -2 19 1 4 3 -2 6 -13 5 -11 0 -14 -3 -6 -6z"/>
<path d="M4915 1244 c-22 -13 -37 -24 -33 -24 14 0 78 34 78 42 0 10 3 11 -45
-18z"/>
<path d="M4845 1210 c-3 -6 1 -7 9 -4 18 7 21 14 7 14 -6 0 -13 -4 -16 -10z"/>
<path d="M4763 1170 c-34 -14 -28 -21 7 -9 17 6 30 13 30 15 0 6 -12 4 -37 -6z"/>
</g>
</svg>
